<svg width="232" height="20" viewBox="0 0 232 20" fill="none" xmlns="http://www.w3.org/2000/svg">
<path d="M6.38356 8.042L8.83356 14.58H10.6816L6.38356 4.71L2.07156 14.58H3.93356L6.38356 8.042ZM10.0236 15V16.54H11.5916V13.516H1.16156V16.54H2.74356V15H10.0236ZM12.6987 11.78C12.6987 12.4333 12.848 13.0167 13.1467 13.53C13.4547 14.034 13.87 14.4307 14.3927 14.72C14.9247 15 15.5173 15.14 16.1707 15.14C16.8333 15.14 17.426 15 17.9487 14.72C18.4713 14.4307 18.882 14.034 19.1807 13.53C19.4887 13.0167 19.6427 12.4333 19.6427 11.78C19.6427 11.1173 19.4887 10.534 19.1807 10.03C18.882 9.526 18.4713 9.134 17.9487 8.854C17.426 8.56467 16.8333 8.42 16.1707 8.42C15.5173 8.42 14.9247 8.56467 14.3927 8.854C13.87 9.134 13.4547 9.526 13.1467 10.03C12.848 10.534 12.6987 11.1173 12.6987 11.78ZM14.2527 11.78C14.2527 11.3787 14.3367 11.024 14.5047 10.716C14.6727 10.408 14.9013 10.17 15.1907 10.002C15.48 9.834 15.8067 9.75 16.1707 9.75C16.5347 9.75 16.8613 9.834 17.1507 10.002C17.44 10.17 17.6687 10.408 17.8367 10.716C18.0047 11.024 18.0887 11.3787 18.0887 11.78C18.0887 12.1813 18.0047 12.536 17.8367 12.844C17.6687 13.1427 17.44 13.3807 17.1507 13.558C16.8613 13.726 16.5347 13.81 16.1707 13.81C15.8067 13.81 15.48 13.726 15.1907 13.558C14.9013 13.3807 14.6727 13.1427 14.5047 12.844C14.3367 12.536 14.2527 12.1813 14.2527 11.78ZM22.099 11.78C22.099 11.3787 22.1877 11.024 22.365 10.716C22.5423 10.408 22.7803 10.1653 23.079 9.988C23.387 9.81067 23.7277 9.722 24.101 9.722C24.3997 9.722 24.689 9.76867 24.969 9.862C25.249 9.95533 25.4963 10.086 25.711 10.254C25.935 10.4127 26.0983 10.5993 26.201 10.814V9.134C25.977 8.91933 25.6737 8.74667 25.291 8.616C24.9083 8.48533 24.4883 8.42 24.031 8.42C23.3777 8.42 22.785 8.56467 22.253 8.854C21.7303 9.134 21.315 9.526 21.007 10.03C20.699 10.534 20.545 11.1173 20.545 11.78C20.545 12.4333 20.699 13.0167 21.007 13.53C21.315 14.034 21.7303 14.4307 22.253 14.72C22.785 15 23.3777 15.14 24.031 15.14C24.4883 15.14 24.9083 15.0747 25.291 14.944C25.6737 14.8133 25.977 14.636 26.201 14.412V12.746C26.0983 12.9513 25.9397 13.138 25.725 13.306C25.5103 13.4647 25.263 13.5953 24.983 13.698C24.7123 13.7913 24.4183 13.838 24.101 13.838C23.7277 13.838 23.387 13.7493 23.079 13.572C22.7803 13.3947 22.5423 13.152 22.365 12.844C22.1877 12.536 22.099 12.1813 22.099 11.78ZM26.9763 8.56V9.89H31.0503V8.56H26.9763ZM28.2783 8.84V15H29.7623V8.84H28.2783ZM33.0352 13.096C33.0352 12.872 33.0912 12.6807 33.2032 12.522C33.3152 12.354 33.4785 12.228 33.6932 12.144C33.9079 12.0507 34.1739 12.004 34.4912 12.004C34.8832 12.004 35.2285 12.0553 35.5272 12.158C35.8259 12.2513 36.1199 12.4053 36.4092 12.62V11.822C36.3345 11.7287 36.1992 11.6213 36.0032 11.5C35.8072 11.3787 35.5599 11.2713 35.2612 11.178C34.9719 11.0847 34.6405 11.038 34.2672 11.038C33.7072 11.038 33.2172 11.122 32.7972 11.29C32.3865 11.458 32.0692 11.7007 31.8452 12.018C31.6212 12.3353 31.5092 12.7133 31.5092 13.152C31.5092 13.5907 31.6072 13.9593 31.8032 14.258C32.0085 14.5473 32.2792 14.7667 32.6152 14.916C32.9605 15.0653 33.3432 15.14 33.7632 15.14C34.2112 15.14 34.6172 15.0653 34.9812 14.916C35.3452 14.7573 35.6345 14.5333 35.8492 14.244C36.0639 13.9453 36.1712 13.5907 36.1712 13.18L35.9472 12.438C35.9472 12.8207 35.8725 13.124 35.7232 13.348C35.5739 13.572 35.3685 13.7353 35.1072 13.838C34.8459 13.9407 34.5519 13.992 34.2252 13.992C34.0105 13.992 33.8099 13.9593 33.6232 13.894C33.4459 13.8193 33.3012 13.7167 33.1892 13.586C33.0865 13.4553 33.0352 13.292 33.0352 13.096ZM32.7132 10.254C32.8159 10.1887 32.9605 10.1093 33.1472 10.016C33.3432 9.91333 33.5672 9.82467 33.8192 9.75C34.0805 9.67533 34.3652 9.638 34.6732 9.638C35.0279 9.638 35.3265 9.722 35.5692 9.89C35.8212 10.0487 35.9472 10.2773 35.9472 10.576V15H37.4312V10.408C37.4312 9.97867 37.3145 9.61467 37.0812 9.316C36.8572 9.01733 36.5445 8.79333 36.1432 8.644C35.7419 8.48533 35.2752 8.406 34.7432 8.406C34.1645 8.406 33.6512 8.49 33.2032 8.658C32.7552 8.826 32.3865 8.99867 32.0972 9.176L32.7132 10.254ZM40.1722 11.64V12.298H42.0342C42.2209 12.298 42.3796 12.3167 42.5102 12.354C42.6502 12.3913 42.7576 12.4473 42.8322 12.522C42.9162 12.5967 42.9816 12.6807 43.0282 12.774C43.0749 12.858 43.0982 12.9607 43.0982 13.082C43.0982 13.2967 43.0142 13.4833 42.8462 13.642C42.6782 13.8007 42.4076 13.88 42.0342 13.88H40.1722V15H42.4962C43.2336 15 43.7609 14.832 44.0782 14.496C44.4049 14.1507 44.5682 13.7353 44.5682 13.25C44.5682 12.83 44.4656 12.5033 44.2602 12.27C44.0549 12.0367 43.7749 11.8733 43.4202 11.78C43.0656 11.6867 42.6642 11.64 42.2162 11.64H40.1722ZM40.1722 11.92H42.0762C42.4776 11.92 42.8416 11.864 43.1682 11.752C43.5042 11.6307 43.7749 11.4533 43.9802 11.22C44.1856 10.9773 44.2882 10.674 44.2882 10.31C44.2882 9.89 44.1856 9.554 43.9802 9.302C43.7749 9.04067 43.5042 8.854 43.1682 8.742C42.8416 8.62067 42.4776 8.56 42.0762 8.56H40.1722V9.68H41.8942C42.1836 9.68 42.4076 9.75 42.5662 9.89C42.7342 10.03 42.8182 10.2073 42.8182 10.422C42.8182 10.5247 42.7949 10.6227 42.7482 10.716C42.7109 10.8093 42.6502 10.8933 42.5662 10.968C42.4916 11.0427 42.3982 11.0987 42.2862 11.136C42.1742 11.1733 42.0436 11.192 41.8942 11.192H40.1722V11.92ZM39.2902 8.56V15H40.7742V8.56H39.2902ZM45.9041 8.56V15H47.3881V8.56H45.9041ZM49.7541 8.56L46.9821 11.22L50.0481 15H51.8961L48.8301 11.22L51.6161 8.56H49.7541ZM53.8438 13.096C53.8438 12.872 53.8998 12.6807 54.0118 12.522C54.1238 12.354 54.2871 12.228 54.5018 12.144C54.7164 12.0507 54.9824 12.004 55.2998 12.004C55.6918 12.004 56.0371 12.0553 56.3358 12.158C56.6344 12.2513 56.9284 12.4053 57.2178 12.62V11.822C57.1431 11.7287 57.0078 11.6213 56.8118 11.5C56.6158 11.3787 56.3684 11.2713 56.0698 11.178C55.7804 11.0847 55.4491 11.038 55.0758 11.038C54.5158 11.038 54.0258 11.122 53.6058 11.29C53.1951 11.458 52.8778 11.7007 52.6538 12.018C52.4298 12.3353 52.3178 12.7133 52.3178 13.152C52.3178 13.5907 52.4158 13.9593 52.6118 14.258C52.8171 14.5473 53.0878 14.7667 53.4238 14.916C53.7691 15.0653 54.1518 15.14 54.5718 15.14C55.0198 15.14 55.4258 15.0653 55.7898 14.916C56.1538 14.7573 56.4431 14.5333 56.6578 14.244C56.8724 13.9453 56.9798 13.5907 56.9798 13.18L56.7558 12.438C56.7558 12.8207 56.6811 13.124 56.5318 13.348C56.3824 13.572 56.1771 13.7353 55.9158 13.838C55.6544 13.9407 55.3604 13.992 55.0338 13.992C54.8191 13.992 54.6184 13.9593 54.4318 13.894C54.2544 13.8193 54.1098 13.7167 53.9978 13.586C53.8951 13.4553 53.8438 13.292 53.8438 13.096ZM53.5218 10.254C53.6244 10.1887 53.7691 10.1093 53.9558 10.016C54.1518 9.91333 54.3758 9.82467 54.6278 9.75C54.8891 9.67533 55.1738 9.638 55.4818 9.638C55.8364 9.638 56.1351 9.722 56.3778 9.89C56.6298 10.0487 56.7558 10.2773 56.7558 10.576V15H58.2398V10.408C58.2398 9.97867 58.1231 9.61467 57.8898 9.316C57.6658 9.01733 57.3531 8.79333 56.9518 8.644C56.5504 8.48533 56.0838 8.406 55.5518 8.406C54.9731 8.406 54.4598 8.49 54.0118 8.658C53.5638 8.826 53.1951 8.99867 52.9058 9.176L53.5218 10.254ZM70.0501 9.96L70.1201 8.07L64.3381 13.6L64.2681 15.49L70.0501 9.96ZM65.7521 8.56H64.2681V15.49L65.7521 13.768V8.56ZM70.1201 8.07L68.6361 9.778V15H70.1201V8.07ZM75.8217 11.78C75.8217 12.4333 75.971 13.0167 76.2697 13.53C76.5777 14.034 76.993 14.4307 77.5157 14.72C78.0477 15 78.6404 15.14 79.2937 15.14C79.9564 15.14 80.549 15 81.0717 14.72C81.5944 14.4307 82.005 14.034 82.3037 13.53C82.6117 13.0167 82.7657 12.4333 82.7657 11.78C82.7657 11.1173 82.6117 10.534 82.3037 10.03C82.005 9.526 81.5944 9.134 81.0717 8.854C80.549 8.56467 79.9564 8.42 79.2937 8.42C78.6404 8.42 78.0477 8.56467 77.5157 8.854C76.993 9.134 76.5777 9.526 76.2697 10.03C75.971 10.534 75.8217 11.1173 75.8217 11.78ZM77.3757 11.78C77.3757 11.3787 77.4597 11.024 77.6277 10.716C77.7957 10.408 78.0244 10.17 78.3137 10.002C78.603 9.834 78.9297 9.75 79.2937 9.75C79.6577 9.75 79.9844 9.834 80.2737 10.002C80.563 10.17 80.7917 10.408 80.9597 10.716C81.1277 11.024 81.2117 11.3787 81.2117 11.78C81.2117 12.1813 81.1277 12.536 80.9597 12.844C80.7917 13.1427 80.563 13.3807 80.2737 13.558C79.9844 13.726 79.6577 13.81 79.2937 13.81C78.9297 13.81 78.603 13.726 78.3137 13.558C78.0244 13.3807 77.7957 13.1427 77.6277 12.844C77.4597 12.536 77.3757 12.1813 77.3757 11.78ZM89.912 8.56H84.214V15H85.698V9.918H88.428V15H89.912V8.56ZM97.933 8.56H92.039V12.55C92.039 12.97 91.9363 13.2547 91.731 13.404C91.535 13.5533 91.297 13.628 91.017 13.628V15C91.6236 15 92.109 14.9207 92.473 14.762C92.8463 14.594 93.1123 14.3467 93.271 14.02C93.439 13.684 93.523 13.264 93.523 12.76V9.96H96.449V15H97.933V8.56ZM100.971 13.096C100.971 12.872 101.027 12.6807 101.139 12.522C101.251 12.354 101.414 12.228 101.629 12.144C101.843 12.0507 102.109 12.004 102.427 12.004C102.819 12.004 103.164 12.0553 103.463 12.158C103.761 12.2513 104.055 12.4053 104.345 12.62V11.822C104.27 11.7287 104.135 11.6213 103.939 11.5C103.743 11.3787 103.495 11.2713 103.197 11.178C102.907 11.0847 102.576 11.038 102.203 11.038C101.643 11.038 101.153 11.122 100.733 11.29C100.322 11.458 100.005 11.7007 99.7807 12.018C99.5567 12.3353 99.4447 12.7133 99.4447 13.152C99.4447 13.5907 99.5427 13.9593 99.7387 14.258C99.9441 14.5473 100.215 14.7667 100.551 14.916C100.896 15.0653 101.279 15.14 101.699 15.14C102.147 15.14 102.553 15.0653 102.917 14.916C103.281 14.7573 103.57 14.5333 103.785 14.244C103.999 13.9453 104.107 13.5907 104.107 13.18L103.883 12.438C103.883 12.8207 103.808 13.124 103.659 13.348C103.509 13.572 103.304 13.7353 103.043 13.838C102.781 13.9407 102.487 13.992 102.161 13.992C101.946 13.992 101.745 13.9593 101.559 13.894C101.381 13.8193 101.237 13.7167 101.125 13.586C101.022 13.4553 100.971 13.292 100.971 13.096ZM100.649 10.254C100.751 10.1887 100.896 10.1093 101.083 10.016C101.279 9.91333 101.503 9.82467 101.755 9.75C102.016 9.67533 102.301 9.638 102.609 9.638C102.963 9.638 103.262 9.722 103.505 9.89C103.757 10.0487 103.883 10.2773 103.883 10.576V15H105.367V10.408C105.367 9.97867 105.25 9.61467 105.017 9.316C104.793 9.01733 104.48 8.79333 104.079 8.644C103.677 8.48533 103.211 8.406 102.679 8.406C102.1 8.406 101.587 8.49 101.139 8.658C100.691 8.826 100.322 8.99867 100.033 9.176L100.649 10.254ZM106.246 8.56V9.89H110.32V8.56H106.246ZM107.548 8.84V15H109.032V8.84H107.548ZM112.305 13.096C112.305 12.872 112.361 12.6807 112.473 12.522C112.585 12.354 112.748 12.228 112.963 12.144C113.177 12.0507 113.443 12.004 113.761 12.004C114.153 12.004 114.498 12.0553 114.797 12.158C115.095 12.2513 115.389 12.4053 115.679 12.62V11.822C115.604 11.7287 115.469 11.6213 115.273 11.5C115.077 11.3787 114.829 11.2713 114.531 11.178C114.241 11.0847 113.91 11.038 113.537 11.038C112.977 11.038 112.487 11.122 112.067 11.29C111.656 11.458 111.339 11.7007 111.115 12.018C110.891 12.3353 110.779 12.7133 110.779 13.152C110.779 13.5907 110.877 13.9593 111.073 14.258C111.278 14.5473 111.549 14.7667 111.885 14.916C112.23 15.0653 112.613 15.14 113.033 15.14C113.481 15.14 113.887 15.0653 114.251 14.916C114.615 14.7573 114.904 14.5333 115.119 14.244C115.333 13.9453 115.441 13.5907 115.441 13.18L115.217 12.438C115.217 12.8207 115.142 13.124 114.993 13.348C114.843 13.572 114.638 13.7353 114.377 13.838C114.115 13.9407 113.821 13.992 113.495 13.992C113.28 13.992 113.079 13.9593 112.893 13.894C112.715 13.8193 112.571 13.7167 112.459 13.586C112.356 13.4553 112.305 13.292 112.305 13.096ZM111.983 10.254C112.085 10.1887 112.23 10.1093 112.417 10.016C112.613 9.91333 112.837 9.82467 113.089 9.75C113.35 9.67533 113.635 9.638 113.943 9.638C114.297 9.638 114.596 9.722 114.839 9.89C115.091 10.0487 115.217 10.2773 115.217 10.576V15H116.701V10.408C116.701 9.97867 116.584 9.61467 116.351 9.316C116.127 9.01733 115.814 8.79333 115.413 8.644C115.011 8.48533 114.545 8.406 114.013 8.406C113.434 8.406 112.921 8.49 112.473 8.658C112.025 8.826 111.656 8.99867 111.367 9.176L111.983 10.254Z" fill="#282739"/>
<rect x="125.602" width="106" height="20" rx="10" fill="#6F73EE"/>
<path d="M137.079 7.80217L139.029 12.9222H139.929L137.079 5.87217L134.229 12.9222H135.129L137.079 7.80217ZM139.879 13.2222V14.3222H140.629V12.4222H133.529V14.3222H134.279V13.2222H139.879ZM141.428 10.9222C141.428 11.3822 141.531 11.7955 141.738 12.1622C141.951 12.5222 142.238 12.8055 142.598 13.0122C142.958 13.2188 143.361 13.3222 143.808 13.3222C144.261 13.3222 144.665 13.2188 145.018 13.0122C145.378 12.8055 145.661 12.5222 145.868 12.1622C146.081 11.7955 146.188 11.3822 146.188 10.9222C146.188 10.4555 146.081 10.0422 145.868 9.68217C145.661 9.32217 145.378 9.03883 145.018 8.83217C144.665 8.6255 144.261 8.52217 143.808 8.52217C143.361 8.52217 142.958 8.6255 142.598 8.83217C142.238 9.03883 141.951 9.32217 141.738 9.68217C141.531 10.0422 141.428 10.4555 141.428 10.9222ZM142.238 10.9222C142.238 10.6022 142.305 10.3188 142.438 10.0722C142.578 9.81883 142.765 9.62217 142.998 9.48217C143.238 9.34217 143.508 9.27217 143.808 9.27217C144.108 9.27217 144.375 9.34217 144.608 9.48217C144.848 9.62217 145.035 9.81883 145.168 10.0722C145.308 10.3188 145.378 10.6022 145.378 10.9222C145.378 11.2422 145.308 11.5255 145.168 11.7722C145.035 12.0188 144.848 12.2155 144.608 12.3622C144.375 12.5022 144.108 12.5722 143.808 12.5722C143.508 12.5722 143.238 12.5022 142.998 12.3622C142.765 12.2155 142.578 12.0188 142.438 11.7722C142.305 11.5255 142.238 11.2422 142.238 10.9222ZM147.647 10.9222C147.647 10.6022 147.714 10.3188 147.847 10.0722C147.987 9.81883 148.174 9.62217 148.407 9.48217C148.647 9.34217 148.917 9.27217 149.217 9.27217C149.464 9.27217 149.694 9.31217 149.907 9.39217C150.127 9.4655 150.317 9.5655 150.477 9.69217C150.637 9.81883 150.75 9.95883 150.817 10.1122V9.11217C150.657 8.9255 150.427 8.78217 150.127 8.68217C149.834 8.5755 149.53 8.52217 149.217 8.52217C148.77 8.52217 148.367 8.6255 148.007 8.83217C147.647 9.03883 147.36 9.32217 147.147 9.68217C146.94 10.0422 146.837 10.4555 146.837 10.9222C146.837 11.3822 146.94 11.7955 147.147 12.1622C147.36 12.5222 147.647 12.8055 148.007 13.0122C148.367 13.2188 148.77 13.3222 149.217 13.3222C149.53 13.3222 149.834 13.2722 150.127 13.1722C150.427 13.0655 150.657 12.9188 150.817 12.7322V11.7322C150.75 11.8788 150.637 12.0188 150.477 12.1522C150.317 12.2788 150.127 12.3822 149.907 12.4622C149.694 12.5355 149.464 12.5722 149.217 12.5722C148.917 12.5722 148.647 12.5022 148.407 12.3622C148.174 12.2155 147.987 12.0188 147.847 11.7722C147.714 11.5255 147.647 11.2422 147.647 10.9222ZM151.363 8.62217V9.37217H154.063V8.62217H151.363ZM152.313 8.82217V13.2222H153.113V8.82217H152.313ZM158.818 8.62217H157.918L156.498 12.1822L156.828 12.2222L155.368 8.62217H154.418L156.178 12.5722L154.918 15.4222H155.818L158.818 8.62217ZM163.322 8.62217H159.572V13.2222H160.372V9.37217H162.522V13.2222H163.322V8.62217ZM165.296 11.1722H168.696V10.4222H165.296V11.1722ZM168.176 8.62217V13.2222H168.976V8.62217H168.176ZM164.826 8.62217V13.2222H165.626V8.62217H164.826ZM170.84 11.8722C170.84 11.6855 170.884 11.5255 170.97 11.3922C171.057 11.2588 171.187 11.1555 171.36 11.0822C171.54 11.0088 171.764 10.9722 172.03 10.9722C172.324 10.9722 172.587 11.0122 172.82 11.0922C173.054 11.1655 173.284 11.2822 173.51 11.4422V10.9722C173.464 10.9122 173.377 10.8355 173.25 10.7422C173.124 10.6422 172.954 10.5555 172.74 10.4822C172.534 10.4022 172.284 10.3622 171.99 10.3622C171.59 10.3622 171.244 10.4255 170.95 10.5522C170.657 10.6722 170.43 10.8455 170.27 11.0722C170.11 11.2988 170.03 11.5755 170.03 11.9022C170.03 12.2155 170.1 12.4788 170.24 12.6922C170.387 12.8988 170.58 13.0555 170.82 13.1622C171.06 13.2688 171.324 13.3222 171.61 13.3222C171.93 13.3222 172.22 13.2688 172.48 13.1622C172.74 13.0488 172.947 12.8888 173.1 12.6822C173.26 12.4688 173.34 12.2155 173.34 11.9222L173.18 11.4222C173.18 11.7088 173.12 11.9388 173 12.1122C172.887 12.2855 172.727 12.4122 172.52 12.4922C172.314 12.5722 172.077 12.6122 171.81 12.6122C171.63 12.6122 171.467 12.5855 171.32 12.5322C171.174 12.4722 171.057 12.3888 170.97 12.2822C170.884 12.1688 170.84 12.0322 170.84 11.8722ZM170.84 9.70217C170.914 9.64883 171.014 9.5855 171.14 9.51217C171.274 9.43217 171.43 9.3655 171.61 9.31217C171.79 9.25217 171.99 9.22217 172.21 9.22217C172.464 9.22217 172.687 9.28217 172.88 9.40217C173.08 9.5155 173.18 9.68883 173.18 9.92217V13.2222H173.98V9.92217C173.98 9.62217 173.904 9.36883 173.75 9.16217C173.604 8.9555 173.397 8.79883 173.13 8.69217C172.87 8.57883 172.564 8.52217 172.21 8.52217C171.797 8.52217 171.444 8.5855 171.15 8.71217C170.857 8.83883 170.624 8.9655 170.45 9.09217L170.84 9.70217ZM179.082 15.4222V8.62217H178.282V15.4222H179.082ZM182.932 10.9222C182.932 10.4222 182.829 9.9955 182.622 9.64217C182.415 9.28217 182.139 9.0055 181.792 8.81217C181.452 8.61883 181.072 8.52217 180.652 8.52217C180.272 8.52217 179.935 8.61883 179.642 8.81217C179.355 9.0055 179.129 9.28217 178.962 9.64217C178.802 9.9955 178.722 10.4222 178.722 10.9222C178.722 11.4155 178.802 11.8422 178.962 12.2022C179.129 12.5622 179.355 12.8388 179.642 13.0322C179.935 13.2255 180.272 13.3222 180.652 13.3222C181.072 13.3222 181.452 13.2255 181.792 13.0322C182.139 12.8388 182.415 12.5622 182.622 12.2022C182.829 11.8422 182.932 11.4155 182.932 10.9222ZM182.122 10.9222C182.122 11.2755 182.049 11.5755 181.902 11.8222C181.762 12.0688 181.572 12.2555 181.332 12.3822C181.099 12.5088 180.839 12.5722 180.552 12.5722C180.319 12.5722 180.089 12.5088 179.862 12.3822C179.635 12.2555 179.449 12.0688 179.302 11.8222C179.155 11.5755 179.082 11.2755 179.082 10.9222C179.082 10.5688 179.155 10.2688 179.302 10.0222C179.449 9.7755 179.635 9.58883 179.862 9.46217C180.089 9.3355 180.319 9.27217 180.552 9.27217C180.839 9.27217 181.099 9.3355 181.332 9.46217C181.572 9.58883 181.762 9.7755 181.902 10.0222C182.049 10.2688 182.122 10.5688 182.122 10.9222ZM184.395 11.8722C184.395 11.6855 184.438 11.5255 184.525 11.3922C184.612 11.2588 184.742 11.1555 184.915 11.0822C185.095 11.0088 185.318 10.9722 185.585 10.9722C185.878 10.9722 186.142 11.0122 186.375 11.0922C186.608 11.1655 186.838 11.2822 187.065 11.4422V10.9722C187.018 10.9122 186.932 10.8355 186.805 10.7422C186.678 10.6422 186.508 10.5555 186.295 10.4822C186.088 10.4022 185.838 10.3622 185.545 10.3622C185.145 10.3622 184.798 10.4255 184.505 10.5522C184.212 10.6722 183.985 10.8455 183.825 11.0722C183.665 11.2988 183.585 11.5755 183.585 11.9022C183.585 12.2155 183.655 12.4788 183.795 12.6922C183.942 12.8988 184.135 13.0555 184.375 13.1622C184.615 13.2688 184.878 13.3222 185.165 13.3222C185.485 13.3222 185.775 13.2688 186.035 13.1622C186.295 13.0488 186.502 12.8888 186.655 12.6822C186.815 12.4688 186.895 12.2155 186.895 11.9222L186.735 11.4222C186.735 11.7088 186.675 11.9388 186.555 12.1122C186.442 12.2855 186.282 12.4122 186.075 12.4922C185.868 12.5722 185.632 12.6122 185.365 12.6122C185.185 12.6122 185.022 12.5855 184.875 12.5322C184.728 12.4722 184.612 12.3888 184.525 12.2822C184.438 12.1688 184.395 12.0322 184.395 11.8722ZM184.395 9.70217C184.468 9.64883 184.568 9.5855 184.695 9.51217C184.828 9.43217 184.985 9.3655 185.165 9.31217C185.345 9.25217 185.545 9.22217 185.765 9.22217C186.018 9.22217 186.242 9.28217 186.435 9.40217C186.635 9.5155 186.735 9.68883 186.735 9.92217V13.2222H187.535V9.92217C187.535 9.62217 187.458 9.36883 187.305 9.16217C187.158 8.9555 186.952 8.79883 186.685 8.69217C186.425 8.57883 186.118 8.52217 185.765 8.52217C185.352 8.52217 184.998 8.5855 184.705 8.71217C184.412 8.83883 184.178 8.9655 184.005 9.09217L184.395 9.70217ZM189.249 10.9222C189.249 10.6022 189.315 10.3188 189.449 10.0722C189.589 9.81883 189.775 9.62217 190.009 9.48217C190.249 9.34217 190.519 9.27217 190.819 9.27217C191.065 9.27217 191.295 9.31217 191.509 9.39217C191.729 9.4655 191.919 9.5655 192.079 9.69217C192.239 9.81883 192.352 9.95883 192.419 10.1122V9.11217C192.259 8.9255 192.029 8.78217 191.729 8.68217C191.435 8.5755 191.132 8.52217 190.819 8.52217C190.372 8.52217 189.969 8.6255 189.609 8.83217C189.249 9.03883 188.962 9.32217 188.749 9.68217C188.542 10.0422 188.439 10.4555 188.439 10.9222C188.439 11.3822 188.542 11.7955 188.749 12.1622C188.962 12.5222 189.249 12.8055 189.609 13.0122C189.969 13.2188 190.372 13.3222 190.819 13.3222C191.132 13.3222 191.435 13.2722 191.729 13.1722C192.029 13.0655 192.259 12.9188 192.419 12.7322V11.7322C192.352 11.8788 192.239 12.0188 192.079 12.1522C191.919 12.2788 191.729 12.3822 191.509 12.4622C191.295 12.5355 191.065 12.5722 190.819 12.5722C190.519 12.5722 190.249 12.5022 190.009 12.3622C189.775 12.2155 189.589 12.0188 189.449 11.7722C189.315 11.5255 189.249 11.2422 189.249 10.9222ZM194.024 10.9222C194.024 10.6022 194.091 10.3188 194.224 10.0722C194.364 9.81883 194.551 9.62217 194.784 9.48217C195.024 9.34217 195.294 9.27217 195.594 9.27217C195.841 9.27217 196.071 9.31217 196.284 9.39217C196.504 9.4655 196.694 9.5655 196.854 9.69217C197.014 9.81883 197.127 9.95883 197.194 10.1122V9.11217C197.034 8.9255 196.804 8.78217 196.504 8.68217C196.211 8.5755 195.907 8.52217 195.594 8.52217C195.147 8.52217 194.744 8.6255 194.384 8.83217C194.024 9.03883 193.737 9.32217 193.524 9.68217C193.317 10.0422 193.214 10.4555 193.214 10.9222C193.214 11.3822 193.317 11.7955 193.524 12.1622C193.737 12.5222 194.024 12.8055 194.384 13.0122C194.744 13.2188 195.147 13.3222 195.594 13.3222C195.907 13.3222 196.211 13.2722 196.504 13.1722C196.804 13.0655 197.034 12.9188 197.194 12.7322V11.7322C197.127 11.8788 197.014 12.0188 196.854 12.1522C196.694 12.2788 196.504 12.3822 196.284 12.4622C196.071 12.5355 195.841 12.5722 195.594 12.5722C195.294 12.5722 195.024 12.5022 194.784 12.3622C194.551 12.2155 194.364 12.0188 194.224 11.7722C194.091 11.5255 194.024 11.2422 194.024 10.9222ZM199.189 15.4222V8.62217H198.389V15.4222H199.189ZM203.039 10.9222C203.039 10.4222 202.936 9.9955 202.729 9.64217C202.523 9.28217 202.246 9.0055 201.899 8.81217C201.559 8.61883 201.179 8.52217 200.759 8.52217C200.379 8.52217 200.043 8.61883 199.749 8.81217C199.463 9.0055 199.236 9.28217 199.069 9.64217C198.909 9.9955 198.829 10.4222 198.829 10.9222C198.829 11.4155 198.909 11.8422 199.069 12.2022C199.236 12.5622 199.463 12.8388 199.749 13.0322C200.043 13.2255 200.379 13.3222 200.759 13.3222C201.179 13.3222 201.559 13.2255 201.899 13.0322C202.246 12.8388 202.523 12.5622 202.729 12.2022C202.936 11.8422 203.039 11.4155 203.039 10.9222ZM202.229 10.9222C202.229 11.2755 202.156 11.5755 202.009 11.8222C201.869 12.0688 201.679 12.2555 201.439 12.3822C201.206 12.5088 200.946 12.5722 200.659 12.5722C200.426 12.5722 200.196 12.5088 199.969 12.3822C199.743 12.2555 199.556 12.0688 199.409 11.8222C199.263 11.5755 199.189 11.2755 199.189 10.9222C199.189 10.5688 199.263 10.2688 199.409 10.0222C199.556 9.7755 199.743 9.58883 199.969 9.46217C200.196 9.3355 200.426 9.27217 200.659 9.27217C200.946 9.27217 201.206 9.3355 201.439 9.46217C201.679 9.58883 201.869 9.7755 202.009 10.0222C202.156 10.2688 202.229 10.5688 202.229 10.9222ZM203.743 10.9222C203.743 11.3822 203.846 11.7955 204.053 12.1622C204.266 12.5222 204.553 12.8055 204.913 13.0122C205.273 13.2188 205.676 13.3222 206.123 13.3222C206.576 13.3222 206.979 13.2188 207.333 13.0122C207.693 12.8055 207.976 12.5222 208.183 12.1622C208.396 11.7955 208.503 11.3822 208.503 10.9222C208.503 10.4555 208.396 10.0422 208.183 9.68217C207.976 9.32217 207.693 9.03883 207.333 8.83217C206.979 8.6255 206.576 8.52217 206.123 8.52217C205.676 8.52217 205.273 8.6255 204.913 8.83217C204.553 9.03883 204.266 9.32217 204.053 9.68217C203.846 10.0422 203.743 10.4555 203.743 10.9222ZM204.553 10.9222C204.553 10.6022 204.619 10.3188 204.753 10.0722C204.893 9.81883 205.079 9.62217 205.313 9.48217C205.553 9.34217 205.823 9.27217 206.123 9.27217C206.423 9.27217 206.689 9.34217 206.923 9.48217C207.163 9.62217 207.349 9.81883 207.483 10.0722C207.623 10.3188 207.693 10.6022 207.693 10.9222C207.693 11.2422 207.623 11.5255 207.483 11.7722C207.349 12.0188 207.163 12.2155 206.923 12.3622C206.689 12.5022 206.423 12.5722 206.123 12.5722C205.823 12.5722 205.553 12.5022 205.313 12.3622C205.079 12.2155 204.893 12.0188 204.753 11.7722C204.619 11.5255 204.553 11.2422 204.553 10.9222ZM211.152 11.8222H212.722V11.0722H211.152V11.8222ZM212.152 8.62217V13.2222H212.952V8.62217H212.152ZM210.152 8.62217H209.352V9.94217C209.352 10.3888 209.405 10.7522 209.512 11.0322C209.618 11.3055 209.802 11.5055 210.062 11.6322C210.328 11.7588 210.692 11.8222 211.152 11.8222V11.0722C210.898 11.0722 210.698 11.0355 210.552 10.9622C210.405 10.8822 210.302 10.7588 210.242 10.5922C210.182 10.4255 210.152 10.2088 210.152 9.94217V8.62217ZM214.405 8.62217V13.2222H215.205V8.62217H214.405ZM216.905 8.62217L214.905 10.5222L217.105 13.2222H218.105L215.905 10.5222L217.905 8.62217H216.905ZM219.219 11.8722C219.219 11.6855 219.263 11.5255 219.349 11.3922C219.436 11.2588 219.566 11.1555 219.739 11.0822C219.919 11.0088 220.143 10.9722 220.409 10.9722C220.703 10.9722 220.966 11.0122 221.199 11.0922C221.433 11.1655 221.663 11.2822 221.889 11.4422V10.9722C221.843 10.9122 221.756 10.8355 221.629 10.7422C221.503 10.6422 221.333 10.5555 221.119 10.4822C220.913 10.4022 220.663 10.3622 220.369 10.3622C219.969 10.3622 219.623 10.4255 219.329 10.5522C219.036 10.6722 218.809 10.8455 218.649 11.0722C218.489 11.2988 218.409 11.5755 218.409 11.9022C218.409 12.2155 218.479 12.4788 218.619 12.6922C218.766 12.8988 218.959 13.0555 219.199 13.1622C219.439 13.2688 219.703 13.3222 219.989 13.3222C220.309 13.3222 220.599 13.2688 220.859 13.1622C221.119 13.0488 221.326 12.8888 221.479 12.6822C221.639 12.4688 221.719 12.2155 221.719 11.9222L221.559 11.4222C221.559 11.7088 221.499 11.9388 221.379 12.1122C221.266 12.2855 221.106 12.4122 220.899 12.4922C220.693 12.5722 220.456 12.6122 220.189 12.6122C220.009 12.6122 219.846 12.5855 219.699 12.5322C219.553 12.4722 219.436 12.3888 219.349 12.2822C219.263 12.1688 219.219 12.0322 219.219 11.8722ZM219.219 9.70217C219.293 9.64883 219.393 9.5855 219.519 9.51217C219.653 9.43217 219.809 9.3655 219.989 9.31217C220.169 9.25217 220.369 9.22217 220.589 9.22217C220.843 9.22217 221.066 9.28217 221.259 9.40217C221.459 9.5155 221.559 9.68883 221.559 9.92217V13.2222H222.359V9.92217C222.359 9.62217 222.283 9.36883 222.129 9.16217C221.983 8.9555 221.776 8.79883 221.509 8.69217C221.249 8.57883 220.943 8.52217 220.589 8.52217C220.176 8.52217 219.823 8.5855 219.529 8.71217C219.236 8.83883 219.003 8.9655 218.829 9.09217L219.219 9.70217Z" fill="white"/>
</svg>
