<svg width="133" height="18" viewBox="0 0 133 18" fill="none" xmlns="http://www.w3.org/2000/svg">
<path d="M0.78 10.504H6.888V9.232H0.78V10.504ZM3.156 6.808V12.94H4.512V6.808H3.156ZM8.02406 5.932H12.1881L8.74406 13H10.2561L14.3001 4.6H8.02406V5.932ZM20.3177 3.64C19.8377 4.536 19.4817 5.484 19.2497 6.484C19.0177 7.484 18.9017 8.496 18.9017 9.52C18.9017 10.536 19.0177 11.544 19.2497 12.544C19.4817 13.544 19.8377 14.496 20.3177 15.4H21.5177C21.1017 14.496 20.7897 13.544 20.5817 12.544C20.3737 11.544 20.2697 10.536 20.2697 9.52C20.2697 8.496 20.3737 7.484 20.5817 6.484C20.7897 5.484 21.1017 4.536 21.5177 3.64H20.3177ZM22.7566 6.628C22.7566 6.98 22.8206 7.292 22.9486 7.564C23.0846 7.828 23.2686 8.052 23.5006 8.236C23.7326 8.42 24.0006 8.56 24.3046 8.656C24.6086 8.752 24.9326 8.8 25.2766 8.8C25.6206 8.8 25.9446 8.752 26.2486 8.656C26.5606 8.56 26.8326 8.42 27.0646 8.236C27.2966 8.052 27.4766 7.828 27.6046 7.564C27.7406 7.292 27.8086 6.98 27.8086 6.628C27.8086 6.196 27.6926 5.82 27.4606 5.5C27.2366 5.172 26.9326 4.916 26.5486 4.732C26.1726 4.54 25.7486 4.444 25.2766 4.444C24.8126 4.444 24.3886 4.54 24.0046 4.732C23.6206 4.916 23.3166 5.172 23.0926 5.5C22.8686 5.82 22.7566 6.196 22.7566 6.628ZM24.1006 6.772C24.1006 6.54 24.1486 6.332 24.2446 6.148C24.3486 5.964 24.4886 5.824 24.6646 5.728C24.8486 5.624 25.0526 5.572 25.2766 5.572C25.5166 5.572 25.7206 5.624 25.8886 5.728C26.0646 5.824 26.2046 5.964 26.3086 6.148C26.4126 6.332 26.4646 6.54 26.4646 6.772C26.4646 7.012 26.4086 7.22 26.2966 7.396C26.1926 7.572 26.0486 7.712 25.8646 7.816C25.6886 7.912 25.4926 7.96 25.2766 7.96C25.0686 7.96 24.8726 7.912 24.6886 7.816C24.5126 7.712 24.3686 7.572 24.2566 7.396C24.1526 7.22 24.1006 7.012 24.1006 6.772ZM22.4566 10.72C22.4566 11.072 22.5286 11.396 22.6726 11.692C22.8246 11.98 23.0286 12.236 23.2846 12.46C23.5486 12.676 23.8486 12.844 24.1846 12.964C24.5286 13.084 24.8926 13.144 25.2766 13.144C25.6686 13.144 26.0326 13.084 26.3686 12.964C26.7126 12.844 27.0126 12.676 27.2686 12.46C27.5326 12.236 27.7366 11.98 27.8806 11.692C28.0326 11.396 28.1086 11.072 28.1086 10.72C28.1086 10.312 28.0286 9.956 27.8686 9.652C27.7086 9.348 27.4926 9.096 27.2206 8.896C26.9486 8.688 26.6406 8.536 26.2966 8.44C25.9606 8.336 25.6206 8.284 25.2766 8.284C24.9326 8.284 24.5926 8.336 24.2566 8.44C23.9206 8.536 23.6166 8.688 23.3446 8.896C23.0726 9.096 22.8566 9.348 22.6966 9.652C22.5366 9.956 22.4566 10.312 22.4566 10.72ZM23.8486 10.528C23.8486 10.264 23.9126 10.024 24.0406 9.808C24.1766 9.592 24.3526 9.424 24.5686 9.304C24.7926 9.176 25.0286 9.112 25.2766 9.112C25.5326 9.112 25.7686 9.176 25.9846 9.304C26.2006 9.424 26.3766 9.592 26.5126 9.808C26.6486 10.024 26.7166 10.264 26.7166 10.528C26.7166 10.832 26.6486 11.088 26.5126 11.296C26.3766 11.504 26.2006 11.664 25.9846 11.776C25.7686 11.888 25.5326 11.944 25.2766 11.944C25.0286 11.944 24.7926 11.888 24.5686 11.776C24.3526 11.664 24.1766 11.504 24.0406 11.296C23.9126 11.088 23.8486 10.832 23.8486 10.528ZM30.6298 8.8C30.6298 8.352 30.6738 7.94 30.7618 7.564C30.8498 7.188 30.9738 6.864 31.1338 6.592C31.3018 6.32 31.5018 6.112 31.7338 5.968C31.9658 5.816 32.2258 5.74 32.5138 5.74C32.8018 5.74 33.0578 5.816 33.2818 5.968C33.5138 6.112 33.7098 6.32 33.8698 6.592C34.0378 6.864 34.1658 7.188 34.2538 7.564C34.3418 7.94 34.3858 8.352 34.3858 8.8C34.3858 9.248 34.3418 9.66 34.2538 10.036C34.1658 10.412 34.0378 10.736 33.8698 11.008C33.7098 11.28 33.5138 11.492 33.2818 11.644C33.0578 11.788 32.8018 11.86 32.5138 11.86C32.2258 11.86 31.9658 11.788 31.7338 11.644C31.5018 11.492 31.3018 11.28 31.1338 11.008C30.9738 10.736 30.8498 10.412 30.7618 10.036C30.6738 9.66 30.6298 9.248 30.6298 8.8ZM29.2378 8.8C29.2378 9.672 29.3738 10.432 29.6458 11.08C29.9258 11.728 30.3098 12.232 30.7978 12.592C31.2938 12.952 31.8658 13.132 32.5138 13.132C33.1698 13.132 33.7418 12.952 34.2298 12.592C34.7178 12.232 35.0978 11.728 35.3698 11.08C35.6418 10.432 35.7778 9.672 35.7778 8.8C35.7778 7.928 35.6418 7.168 35.3698 6.52C35.0978 5.872 34.7178 5.368 34.2298 5.008C33.7418 4.648 33.1698 4.468 32.5138 4.468C31.8658 4.468 31.2938 4.648 30.7978 5.008C30.3098 5.368 29.9258 5.872 29.6458 6.52C29.3738 7.168 29.2378 7.928 29.2378 8.8ZM38.1298 8.8C38.1298 8.352 38.1738 7.94 38.2618 7.564C38.3498 7.188 38.4738 6.864 38.6338 6.592C38.8018 6.32 39.0018 6.112 39.2338 5.968C39.4658 5.816 39.7258 5.74 40.0138 5.74C40.3018 5.74 40.5578 5.816 40.7818 5.968C41.0138 6.112 41.2098 6.32 41.3698 6.592C41.5378 6.864 41.6658 7.188 41.7538 7.564C41.8418 7.94 41.8858 8.352 41.8858 8.8C41.8858 9.248 41.8418 9.66 41.7538 10.036C41.6658 10.412 41.5378 10.736 41.3698 11.008C41.2098 11.28 41.0138 11.492 40.7818 11.644C40.5578 11.788 40.3018 11.86 40.0138 11.86C39.7258 11.86 39.4658 11.788 39.2338 11.644C39.0018 11.492 38.8018 11.28 38.6338 11.008C38.4738 10.736 38.3498 10.412 38.2618 10.036C38.1738 9.66 38.1298 9.248 38.1298 8.8ZM36.7378 8.8C36.7378 9.672 36.8738 10.432 37.1458 11.08C37.4258 11.728 37.8098 12.232 38.2978 12.592C38.7938 12.952 39.3658 13.132 40.0138 13.132C40.6698 13.132 41.2418 12.952 41.7298 12.592C42.2178 12.232 42.5978 11.728 42.8698 11.08C43.1418 10.432 43.2778 9.672 43.2778 8.8C43.2778 7.928 43.1418 7.168 42.8698 6.52C42.5978 5.872 42.2178 5.368 41.7298 5.008C41.2418 4.648 40.6698 4.468 40.0138 4.468C39.3658 4.468 38.7938 4.648 38.2978 5.008C37.8098 5.368 37.4258 5.872 37.1458 6.52C36.8738 7.168 36.7378 7.928 36.7378 8.8ZM45.2458 15.4C45.7258 14.496 46.0778 13.544 46.3018 12.544C46.5338 11.544 46.6498 10.536 46.6498 9.52C46.6498 8.496 46.5338 7.484 46.3018 6.484C46.0778 5.484 45.7258 4.536 45.2458 3.64H44.0458C44.4698 4.536 44.7818 5.484 44.9818 6.484C45.1898 7.484 45.2938 8.496 45.2938 9.52C45.2938 10.536 45.1898 11.544 44.9818 12.544C44.7818 13.544 44.4698 14.496 44.0458 15.4H45.2458ZM57.9184 10.264C57.9184 9.696 57.8024 9.204 57.5704 8.788C57.3464 8.372 57.0424 8.048 56.6584 7.816C56.2744 7.584 55.8504 7.468 55.3864 7.468C55.1544 7.468 54.9264 7.492 54.7024 7.54C54.4784 7.588 54.2624 7.664 54.0544 7.768L54.5824 5.848H57.8344V4.6H53.5144L52.3744 9.22C52.6624 9.044 52.9264 8.908 53.1664 8.812C53.4144 8.716 53.6544 8.652 53.8864 8.62C54.1264 8.58 54.3704 8.56 54.6184 8.56C54.9384 8.56 55.2344 8.624 55.5064 8.752C55.7784 8.88 55.9944 9.064 56.1544 9.304C56.3144 9.544 56.3944 9.836 56.3944 10.18C56.3944 10.516 56.3224 10.808 56.1784 11.056C56.0424 11.296 55.8424 11.484 55.5784 11.62C55.3144 11.748 54.9944 11.812 54.6184 11.812C54.3544 11.812 54.0864 11.76 53.8144 11.656C53.5504 11.544 53.3064 11.4 53.0824 11.224C52.8584 11.04 52.6624 10.836 52.4944 10.612L51.6544 11.644C51.8704 11.908 52.1224 12.156 52.4104 12.388C52.6984 12.612 53.0384 12.792 53.4304 12.928C53.8304 13.064 54.2864 13.132 54.7984 13.132C55.2064 13.132 55.5944 13.076 55.9624 12.964C56.3304 12.844 56.6624 12.668 56.9584 12.436C57.2544 12.196 57.4864 11.896 57.6544 11.536C57.8304 11.176 57.9184 10.752 57.9184 10.264ZM60.2665 8.8C60.2665 8.352 60.3105 7.94 60.3985 7.564C60.4865 7.188 60.6105 6.864 60.7705 6.592C60.9385 6.32 61.1385 6.112 61.3705 5.968C61.6025 5.816 61.8625 5.74 62.1505 5.74C62.4385 5.74 62.6945 5.816 62.9185 5.968C63.1505 6.112 63.3465 6.32 63.5065 6.592C63.6745 6.864 63.8025 7.188 63.8905 7.564C63.9785 7.94 64.0225 8.352 64.0225 8.8C64.0225 9.248 63.9785 9.66 63.8905 10.036C63.8025 10.412 63.6745 10.736 63.5065 11.008C63.3465 11.28 63.1505 11.492 62.9185 11.644C62.6945 11.788 62.4385 11.86 62.1505 11.86C61.8625 11.86 61.6025 11.788 61.3705 11.644C61.1385 11.492 60.9385 11.28 60.7705 11.008C60.6105 10.736 60.4865 10.412 60.3985 10.036C60.3105 9.66 60.2665 9.248 60.2665 8.8ZM58.8745 8.8C58.8745 9.672 59.0105 10.432 59.2825 11.08C59.5625 11.728 59.9465 12.232 60.4345 12.592C60.9305 12.952 61.5025 13.132 62.1505 13.132C62.8065 13.132 63.3785 12.952 63.8665 12.592C64.3545 12.232 64.7345 11.728 65.0065 11.08C65.2785 10.432 65.4145 9.672 65.4145 8.8C65.4145 7.928 65.2785 7.168 65.0065 6.52C64.7345 5.872 64.3545 5.368 63.8665 5.008C63.3785 4.648 62.8065 4.468 62.1505 4.468C61.5025 4.468 60.9305 4.648 60.4345 5.008C59.9465 5.368 59.5625 5.872 59.2825 6.52C59.0105 7.168 58.8745 7.928 58.8745 8.8ZM72.5785 10.264C72.5785 9.696 72.4625 9.204 72.2305 8.788C72.0065 8.372 71.7025 8.048 71.3185 7.816C70.9345 7.584 70.5105 7.468 70.0465 7.468C69.8145 7.468 69.5865 7.492 69.3625 7.54C69.1385 7.588 68.9225 7.664 68.7145 7.768L69.2425 5.848H72.4945V4.6H68.1745L67.0345 9.22C67.3225 9.044 67.5865 8.908 67.8265 8.812C68.0745 8.716 68.3145 8.652 68.5465 8.62C68.7865 8.58 69.0305 8.56 69.2785 8.56C69.5985 8.56 69.8945 8.624 70.1665 8.752C70.4385 8.88 70.6545 9.064 70.8145 9.304C70.9745 9.544 71.0545 9.836 71.0545 10.18C71.0545 10.516 70.9825 10.808 70.8385 11.056C70.7025 11.296 70.5025 11.484 70.2385 11.62C69.9745 11.748 69.6545 11.812 69.2785 11.812C69.0145 11.812 68.7465 11.76 68.4745 11.656C68.2105 11.544 67.9665 11.4 67.7425 11.224C67.5185 11.04 67.3225 10.836 67.1545 10.612L66.3145 11.644C66.5305 11.908 66.7825 12.156 67.0705 12.388C67.3585 12.612 67.6985 12.792 68.0905 12.928C68.4905 13.064 68.9465 13.132 69.4585 13.132C69.8665 13.132 70.2545 13.076 70.6225 12.964C70.9905 12.844 71.3225 12.668 71.6185 12.436C71.9145 12.196 72.1465 11.896 72.3145 11.536C72.4905 11.176 72.5785 10.752 72.5785 10.264ZM73.1147 10.732H75.5747V9.568H73.1147V10.732ZM82.3168 10.264C82.3168 9.696 82.2008 9.204 81.9688 8.788C81.7448 8.372 81.4408 8.048 81.0568 7.816C80.6728 7.584 80.2488 7.468 79.7848 7.468C79.5528 7.468 79.3248 7.492 79.1008 7.54C78.8768 7.588 78.6608 7.664 78.4528 7.768L78.9808 5.848H82.2328V4.6H77.9128L76.7728 9.22C77.0608 9.044 77.3248 8.908 77.5648 8.812C77.8128 8.716 78.0528 8.652 78.2848 8.62C78.5248 8.58 78.7688 8.56 79.0168 8.56C79.3368 8.56 79.6328 8.624 79.9048 8.752C80.1768 8.88 80.3928 9.064 80.5528 9.304C80.7128 9.544 80.7928 9.836 80.7928 10.18C80.7928 10.516 80.7208 10.808 80.5768 11.056C80.4408 11.296 80.2408 11.484 79.9768 11.62C79.7128 11.748 79.3928 11.812 79.0168 11.812C78.7528 11.812 78.4848 11.76 78.2128 11.656C77.9488 11.544 77.7048 11.4 77.4808 11.224C77.2568 11.04 77.0608 10.836 76.8928 10.612L76.0528 11.644C76.2688 11.908 76.5208 12.156 76.8088 12.388C77.0968 12.612 77.4368 12.792 77.8288 12.928C78.2288 13.064 78.6848 13.132 79.1968 13.132C79.6048 13.132 79.9928 13.076 80.3608 12.964C80.7288 12.844 81.0608 12.668 81.3568 12.436C81.6528 12.196 81.8848 11.896 82.0528 11.536C82.2288 11.176 82.3168 10.752 82.3168 10.264ZM83.009 11.392H89.921V10.168H88.205L88.001 10.264H85.085L87.245 7.132V10.756L87.149 10.888V13H88.601V4.6H87.749L83.009 11.392ZM90.3998 10.732H92.8598V9.568H90.3998V10.732ZM94.91 10.168C94.91 9.824 94.982 9.52 95.126 9.256C95.278 8.984 95.482 8.776 95.738 8.632C95.994 8.48 96.282 8.404 96.602 8.404C96.922 8.404 97.21 8.48 97.466 8.632C97.722 8.776 97.922 8.984 98.066 9.256C98.218 9.52 98.294 9.824 98.294 10.168C98.294 10.512 98.218 10.812 98.066 11.068C97.922 11.324 97.722 11.528 97.466 11.68C97.21 11.824 96.922 11.896 96.602 11.896C96.282 11.896 95.994 11.824 95.738 11.68C95.482 11.528 95.278 11.324 95.126 11.068C94.982 10.812 94.91 10.512 94.91 10.168ZM96.89 4.612L94.226 8.188C94.018 8.452 93.846 8.752 93.71 9.088C93.582 9.416 93.518 9.776 93.518 10.168C93.518 10.784 93.654 11.316 93.926 11.764C94.206 12.212 94.578 12.556 95.042 12.796C95.506 13.028 96.026 13.144 96.602 13.144C97.178 13.144 97.698 13.028 98.162 12.796C98.626 12.556 98.994 12.212 99.266 11.764C99.546 11.316 99.686 10.784 99.686 10.168C99.686 9.768 99.614 9.4 99.47 9.064C99.334 8.728 99.146 8.44 98.906 8.2C98.674 7.952 98.406 7.764 98.102 7.636C97.798 7.5 97.482 7.432 97.154 7.432C96.866 7.432 96.618 7.468 96.41 7.54C96.202 7.604 96.006 7.74 95.822 7.948L96.026 7.912L98.69 4.612H96.89ZM101.189 6.568L103.145 6.028V13H104.537V4.468L101.189 5.224V6.568Z" fill="#282739"/>
<circle cx="124" cy="9" r="8.5" stroke="#5D6C7B"/>
<path d="M120 9.65306H128V8.34694H120V9.65306ZM123.299 5V13H124.701V5H123.299Z" fill="#5D6C7B"/>
</svg>
