<svg width="55" height="11" viewBox="0 0 55 11" fill="none" xmlns="http://www.w3.org/2000/svg">
<path d="M0.490438 0.199999V10H2.18444V0.199999H0.490438ZM5.82444 0.199999L1.69444 4.834L5.99244 10H8.03644L3.68244 4.792L7.82644 0.199999H5.82444ZM8.11858 6.78C8.11858 7.43333 8.26791 8.01667 8.56658 8.53C8.87458 9.034 9.28991 9.43067 9.81258 9.72C10.3446 10 10.9372 10.14 11.5906 10.14C12.2532 10.14 12.8459 10 13.3686 9.72C13.8912 9.43067 14.3019 9.034 14.6006 8.53C14.9086 8.01667 15.0626 7.43333 15.0626 6.78C15.0626 6.11733 14.9086 5.534 14.6006 5.03C14.3019 4.526 13.8912 4.134 13.3686 3.854C12.8459 3.56467 12.2532 3.42 11.5906 3.42C10.9372 3.42 10.3446 3.56467 9.81258 3.854C9.28991 4.134 8.87458 4.526 8.56658 5.03C8.26791 5.534 8.11858 6.11733 8.11858 6.78ZM9.67258 6.78C9.67258 6.37867 9.75658 6.024 9.92458 5.716C10.0926 5.408 10.3212 5.17 10.6106 5.002C10.8999 4.834 11.2266 4.75 11.5906 4.75C11.9546 4.75 12.2812 4.834 12.5706 5.002C12.8599 5.17 13.0886 5.408 13.2566 5.716C13.4246 6.024 13.5086 6.37867 13.5086 6.78C13.5086 7.18133 13.4246 7.536 13.2566 7.844C13.0886 8.14267 12.8599 8.38067 12.5706 8.558C12.2812 8.726 11.9546 8.81 11.5906 8.81C11.2266 8.81 10.8999 8.726 10.6106 8.558C10.3212 8.38067 10.0926 8.14267 9.92458 7.844C9.75658 7.536 9.67258 7.18133 9.67258 6.78ZM17.1689 7.228H22.0969V5.968H17.1689V7.228ZM21.2849 3.56V10H22.7689V3.56H21.2849ZM16.5109 3.56V10H17.9949V3.56H16.5109ZM23.8044 3.56V4.89H27.8784V3.56H23.8044ZM25.1064 3.84V10H26.5904V3.84H25.1064ZM29.8633 8.096C29.8633 7.872 29.9193 7.68067 30.0313 7.522C30.1433 7.354 30.3066 7.228 30.5213 7.144C30.736 7.05067 31.002 7.004 31.3193 7.004C31.7113 7.004 32.0566 7.05533 32.3553 7.158C32.654 7.25133 32.948 7.40533 33.2373 7.62V6.822C33.1626 6.72867 33.0273 6.62133 32.8313 6.5C32.6353 6.37867 32.388 6.27133 32.0893 6.178C31.8 6.08467 31.4686 6.038 31.0953 6.038C30.5353 6.038 30.0453 6.122 29.6253 6.29C29.2146 6.458 28.8973 6.70067 28.6733 7.018C28.4493 7.33533 28.3373 7.71333 28.3373 8.152C28.3373 8.59067 28.4353 8.95933 28.6313 9.258C28.8366 9.54733 29.1073 9.76667 29.4433 9.916C29.7886 10.0653 30.1713 10.14 30.5913 10.14C31.0393 10.14 31.4453 10.0653 31.8093 9.916C32.1733 9.75733 32.4626 9.53333 32.6773 9.244C32.892 8.94533 32.9993 8.59067 32.9993 8.18L32.7753 7.438C32.7753 7.82067 32.7006 8.124 32.5513 8.348C32.402 8.572 32.1966 8.73533 31.9353 8.838C31.674 8.94067 31.38 8.992 31.0533 8.992C30.8386 8.992 30.638 8.95933 30.4513 8.894C30.274 8.81933 30.1293 8.71667 30.0173 8.586C29.9146 8.45533 29.8633 8.292 29.8633 8.096ZM29.5413 5.254C29.644 5.18867 29.7886 5.10933 29.9753 5.016C30.1713 4.91333 30.3953 4.82467 30.6473 4.75C30.9086 4.67533 31.1933 4.638 31.5013 4.638C31.856 4.638 32.1546 4.722 32.3973 4.89C32.6493 5.04867 32.7753 5.27733 32.7753 5.576V10H34.2593V5.408C34.2593 4.97867 34.1426 4.61467 33.9093 4.316C33.6853 4.01733 33.3726 3.79333 32.9713 3.644C32.57 3.48533 32.1033 3.406 31.5713 3.406C30.9926 3.406 30.4793 3.49 30.0313 3.658C29.5833 3.826 29.2146 3.99867 28.9253 4.176L29.5413 5.254ZM35.9784 3.56V10H37.4624V3.56H35.9784ZM39.8284 3.56L37.0564 6.22L40.1224 10H41.9704L38.9044 6.22L41.6904 3.56H39.8284ZM42.07 3.56V4.89H46.144V3.56H42.07ZM43.372 3.84V10H44.856V3.84H43.372ZM53.4209 3.56V10H54.9469V3.56H53.4209ZM47.1769 3.56V10H48.7029V3.56H47.1769ZM48.2409 7.032H50.0889C50.4249 7.032 50.6816 7.10667 50.8589 7.256C51.0363 7.40533 51.1249 7.62 51.1249 7.9C51.1249 8.07733 51.0829 8.23133 50.9989 8.362C50.9243 8.49267 50.8076 8.59067 50.6489 8.656C50.4996 8.72133 50.3129 8.754 50.0889 8.754H48.2409V10H50.2429C50.6909 10 51.0923 9.92067 51.4469 9.762C51.8016 9.60333 52.0816 9.36533 52.2869 9.048C52.4923 8.73067 52.5949 8.34333 52.5949 7.886C52.5949 7.19533 52.3663 6.69133 51.9089 6.374C51.4609 6.04733 50.9056 5.884 50.2429 5.884H48.2409V7.032Z" fill="#282739"/>
</svg>
