<svg width="69" height="20" viewBox="0 0 69 20" fill="none" xmlns="http://www.w3.org/2000/svg">
<path d="M2.268 12.48H7.448L7.14 11.08H2.59L2.268 12.48ZM4.83 7.972L6.398 11.612L6.426 12.018L7.756 15H9.632L4.83 4.654L0.042 15H1.904L3.262 11.934L3.29 11.57L4.83 7.972ZM10.576 8.56V15H12.06V8.56H10.576ZM14.426 8.56L11.654 11.22L14.72 15H16.568L13.502 11.22L16.288 8.56H14.426ZM23.3037 13.67V8.56H21.7777V13.67H19.0897V8.56H17.5637V15H23.0377V16.33H24.4237V13.67H23.3037ZM31.6321 9.96L31.7021 8.07L25.9201 13.6L25.8501 15.49L31.6321 9.96ZM27.3341 8.56H25.8501V15.49L27.3341 13.768V8.56ZM31.7021 8.07L30.2181 9.778V15H31.7021V8.07ZM39.5345 9.96L39.6045 8.07L33.8225 13.6L33.7525 15.49L39.5345 9.96ZM35.2365 8.56H33.7525V15.49L35.2365 13.768V8.56ZM39.6045 8.07L38.1205 9.778V15H39.6045V8.07Z" fill="#282739"/>
<rect x="49" width="20" height="20" rx="10" fill="#6F73EE"/>
<path d="M55.0266 8.56C55.0266 8.87333 55.0966 9.16 55.2366 9.42C55.3832 9.67333 55.5866 9.87667 55.8466 10.03C56.1066 10.1833 56.3999 10.26 56.7266 10.26C57.0666 10.26 57.3632 10.1833 57.6166 10.03C57.8766 9.87667 58.0766 9.67333 58.2166 9.42C58.3632 9.16 58.4366 8.87333 58.4366 8.56C58.4366 8.24667 58.3632 7.96333 58.2166 7.71C58.0766 7.45 57.8766 7.24333 57.6166 7.09C57.3632 6.93667 57.0666 6.86 56.7266 6.86C56.3999 6.86 56.1066 6.93667 55.8466 7.09C55.5866 7.24333 55.3832 7.45 55.2366 7.71C55.0966 7.96333 55.0266 8.24667 55.0266 8.56ZM55.9566 8.56C55.9566 8.40667 55.9866 8.26667 56.0466 8.14C56.1132 8.01333 56.2032 7.91333 56.3166 7.84C56.4366 7.76667 56.5732 7.73 56.7266 7.73C56.8932 7.73 57.0332 7.76667 57.1466 7.84C57.2599 7.91333 57.3499 8.01333 57.4166 8.14C57.4832 8.26667 57.5166 8.40667 57.5166 8.56C57.5166 8.70667 57.4832 8.84667 57.4166 8.98C57.3499 9.10667 57.2599 9.21 57.1466 9.29C57.0332 9.36333 56.8932 9.4 56.7266 9.4C56.5732 9.4 56.4366 9.36333 56.3166 9.29C56.2032 9.21 56.1132 9.10667 56.0466 8.98C55.9866 8.84667 55.9566 8.70667 55.9566 8.56ZM59.2066 12.43C59.2066 12.7433 59.2766 13.03 59.4166 13.29C59.5632 13.55 59.7666 13.7567 60.0266 13.91C60.2866 14.0567 60.5799 14.13 60.9066 14.13C61.2466 14.13 61.5432 14.0567 61.7966 13.91C62.0499 13.7567 62.2499 13.55 62.3966 13.29C62.5432 13.03 62.6166 12.7433 62.6166 12.43C62.6166 12.1167 62.5432 11.8333 62.3966 11.58C62.2499 11.32 62.0499 11.1133 61.7966 10.96C61.5432 10.8067 61.2466 10.73 60.9066 10.73C60.5799 10.73 60.2866 10.8067 60.0266 10.96C59.7666 11.1133 59.5632 11.32 59.4166 11.58C59.2766 11.8333 59.2066 12.1167 59.2066 12.43ZM60.1266 12.43C60.1266 12.2767 60.1566 12.14 60.2166 12.02C60.2832 11.8933 60.3732 11.7933 60.4866 11.72C60.6066 11.64 60.7466 11.6 60.9066 11.6C61.0732 11.6 61.2132 11.64 61.3266 11.72C61.4399 11.7933 61.5266 11.8933 61.5866 12.02C61.6532 12.1467 61.6866 12.2833 61.6866 12.43C61.6866 12.5767 61.6532 12.7167 61.5866 12.85C61.5266 12.9767 61.4399 13.08 61.3266 13.16C61.2132 13.2333 61.0732 13.27 60.9066 13.27C60.7466 13.27 60.6066 13.2333 60.4866 13.16C60.3732 13.08 60.2832 12.9767 60.2166 12.85C60.1566 12.7167 60.1266 12.5767 60.1266 12.43ZM60.7066 7L55.8566 14H56.9366L61.7866 7H60.7066Z" fill="white"/>
</svg>
