<svg width="74" height="11" viewBox="0 0 74 11" fill="none" xmlns="http://www.w3.org/2000/svg">
<path d="M2.282 5.1C2.282 4.428 2.42667 3.83067 2.716 3.308C3.00533 2.776 3.39733 2.36067 3.892 2.062C4.396 1.76333 4.97 1.614 5.614 1.614C6.27667 1.614 6.85533 1.76333 7.35 2.062C7.854 2.36067 8.246 2.776 8.526 3.308C8.806 3.83067 8.946 4.428 8.946 5.1C8.946 5.772 8.80133 6.36933 8.512 6.892C8.232 7.41467 7.84 7.83 7.336 8.138C6.84133 8.43667 6.26733 8.586 5.614 8.586C4.97 8.586 4.396 8.43667 3.892 8.138C3.39733 7.83 3.00533 7.41467 2.716 6.892C2.42667 6.36933 2.282 5.772 2.282 5.1ZM0.532 5.1C0.532 5.828 0.658 6.50467 0.91 7.13C1.162 7.75533 1.51667 8.29667 1.974 8.754C2.43133 9.21133 2.968 9.57067 3.584 9.832C4.20933 10.084 4.886 10.21 5.614 10.21C6.36067 10.21 7.042 10.084 7.658 9.832C8.274 9.57067 8.81067 9.21133 9.268 8.754C9.72533 8.29667 10.08 7.75533 10.332 7.13C10.584 6.50467 10.71 5.828 10.71 5.1C10.71 4.36267 10.584 3.686 10.332 3.07C10.08 2.454 9.72067 1.922 9.254 1.474C8.79667 1.01667 8.26 0.661999 7.644 0.409999C7.028 0.148666 6.35133 0.0179992 5.614 0.0179992C4.89533 0.0179992 4.22333 0.148666 3.598 0.409999C2.982 0.661999 2.44067 1.01667 1.974 1.474C1.51667 1.922 1.162 2.454 0.91 3.07C0.658 3.686 0.532 4.36267 0.532 5.1ZM22.5335 10H24.1435L22.3655 3.07L21.5535 5.17L22.5335 10ZM19.3835 8.684L19.8035 10.434L22.5055 5.548L22.3655 3.07L19.3835 8.684ZM19.8035 10.434L20.2235 8.684L17.2975 3.07L17.1575 5.548L19.8035 10.434ZM15.5055 10H17.1155L18.0955 5.17L17.2975 3.07L15.5055 10ZM26.1309 8.096C26.1309 7.872 26.1869 7.68067 26.2989 7.522C26.4109 7.354 26.5742 7.228 26.7889 7.144C27.0036 7.05067 27.2696 7.004 27.5869 7.004C27.9789 7.004 28.3242 7.05533 28.6229 7.158C28.9216 7.25133 29.2156 7.40533 29.5049 7.62V6.822C29.4302 6.72867 29.2949 6.62133 29.0989 6.5C28.9029 6.37867 28.6556 6.27133 28.3569 6.178C28.0676 6.08467 27.7362 6.038 27.3629 6.038C26.8029 6.038 26.3129 6.122 25.8929 6.29C25.4822 6.458 25.1649 6.70067 24.9409 7.018C24.7169 7.33533 24.6049 7.71333 24.6049 8.152C24.6049 8.59067 24.7029 8.95933 24.8989 9.258C25.1042 9.54733 25.3749 9.76667 25.7109 9.916C26.0562 10.0653 26.4389 10.14 26.8589 10.14C27.3069 10.14 27.7129 10.0653 28.0769 9.916C28.4409 9.75733 28.7302 9.53333 28.9449 9.244C29.1596 8.94533 29.2669 8.59067 29.2669 8.18L29.0429 7.438C29.0429 7.82067 28.9682 8.124 28.8189 8.348C28.6696 8.572 28.4642 8.73533 28.2029 8.838C27.9416 8.94067 27.6476 8.992 27.3209 8.992C27.1062 8.992 26.9056 8.95933 26.7189 8.894C26.5416 8.81933 26.3969 8.71667 26.2849 8.586C26.1822 8.45533 26.1309 8.292 26.1309 8.096ZM25.8089 5.254C25.9116 5.18867 26.0562 5.10933 26.2429 5.016C26.4389 4.91333 26.6629 4.82467 26.9149 4.75C27.1762 4.67533 27.4609 4.638 27.7689 4.638C28.1236 4.638 28.4222 4.722 28.6649 4.89C28.9169 5.04867 29.0429 5.27733 29.0429 5.576V10H30.5269V5.408C30.5269 4.97867 30.4102 4.61467 30.1769 4.316C29.9529 4.01733 29.6402 3.79333 29.2389 3.644C28.8376 3.48533 28.3709 3.406 27.8389 3.406C27.2602 3.406 26.7469 3.49 26.2989 3.658C25.8509 3.826 25.4822 3.99867 25.1929 4.176L25.8089 5.254ZM32.3579 3.56V10H33.8559V4.89H36.0679V3.56H32.3579ZM38.0254 8.096C38.0254 7.872 38.0814 7.68067 38.1934 7.522C38.3054 7.354 38.4688 7.228 38.6834 7.144C38.8981 7.05067 39.1641 7.004 39.4814 7.004C39.8734 7.004 40.2188 7.05533 40.5174 7.158C40.8161 7.25133 41.1101 7.40533 41.3994 7.62V6.822C41.3248 6.72867 41.1894 6.62133 40.9934 6.5C40.7974 6.37867 40.5501 6.27133 40.2514 6.178C39.9621 6.08467 39.6308 6.038 39.2574 6.038C38.6974 6.038 38.2074 6.122 37.7874 6.29C37.3768 6.458 37.0594 6.70067 36.8354 7.018C36.6114 7.33533 36.4994 7.71333 36.4994 8.152C36.4994 8.59067 36.5974 8.95933 36.7934 9.258C36.9988 9.54733 37.2694 9.76667 37.6054 9.916C37.9508 10.0653 38.3334 10.14 38.7534 10.14C39.2014 10.14 39.6074 10.0653 39.9714 9.916C40.3354 9.75733 40.6248 9.53333 40.8394 9.244C41.0541 8.94533 41.1614 8.59067 41.1614 8.18L40.9374 7.438C40.9374 7.82067 40.8628 8.124 40.7134 8.348C40.5641 8.572 40.3588 8.73533 40.0974 8.838C39.8361 8.94067 39.5421 8.992 39.2154 8.992C39.0008 8.992 38.8001 8.95933 38.6134 8.894C38.4361 8.81933 38.2914 8.71667 38.1794 8.586C38.0768 8.45533 38.0254 8.292 38.0254 8.096ZM37.7034 5.254C37.8061 5.18867 37.9508 5.10933 38.1374 5.016C38.3334 4.91333 38.5574 4.82467 38.8094 4.75C39.0708 4.67533 39.3554 4.638 39.6634 4.638C40.0181 4.638 40.3168 4.722 40.5594 4.89C40.8114 5.04867 40.9374 5.27733 40.9374 5.576V10H42.4214V5.408C42.4214 4.97867 42.3048 4.61467 42.0714 4.316C41.8474 4.01733 41.5348 3.79333 41.1334 3.644C40.7321 3.48533 40.2654 3.406 39.7334 3.406C39.1548 3.406 38.6414 3.49 38.1934 3.658C37.7454 3.826 37.3768 3.99867 37.0874 4.176L37.7034 5.254ZM46.7585 6.78C47.5798 6.79867 48.2051 6.65867 48.6345 6.36C49.0638 6.052 49.2785 5.66467 49.2785 5.198C49.2785 4.87133 49.1758 4.57267 48.9705 4.302C48.7651 4.03133 48.4805 3.81667 48.1165 3.658C47.7525 3.49933 47.3418 3.42 46.8845 3.42C46.3991 3.42 45.9651 3.51333 45.5825 3.7C45.2091 3.88667 44.9151 4.13867 44.7005 4.456C44.4951 4.77333 44.3925 5.13267 44.3925 5.534H45.8345C45.8345 5.38467 45.8718 5.24467 45.9465 5.114C46.0305 4.974 46.1518 4.862 46.3105 4.778C46.4691 4.68467 46.6651 4.638 46.8985 4.638C47.1785 4.638 47.4025 4.70333 47.5705 4.834C47.7385 4.96467 47.8225 5.13733 47.8225 5.352C47.8225 5.56667 47.7385 5.74867 47.5705 5.898C47.4025 6.038 47.1318 6.108 46.7585 6.108V6.78ZM46.8565 10.14C47.3605 10.14 47.8178 10.0607 48.2285 9.902C48.6391 9.734 48.9611 9.50067 49.1945 9.202C49.4371 8.894 49.5585 8.53 49.5585 8.11C49.5585 7.51267 49.3065 7.06933 48.8025 6.78C48.3078 6.48133 47.6265 6.34133 46.7585 6.36V7.102C47.0478 7.102 47.2905 7.13933 47.4865 7.214C47.6918 7.28867 47.8458 7.396 47.9485 7.536C48.0511 7.66667 48.1025 7.83467 48.1025 8.04C48.1025 8.21733 48.0511 8.376 47.9485 8.516C47.8551 8.656 47.7151 8.76333 47.5285 8.838C47.3418 8.91267 47.1178 8.95 46.8565 8.95C46.4551 8.95 46.1518 8.84733 45.9465 8.642C45.7505 8.43667 45.6198 8.18933 45.5545 7.9H44.0705C44.1451 8.56267 44.4205 9.104 44.8965 9.524C45.3818 9.93467 46.0351 10.14 46.8565 10.14ZM56.9935 4.96L57.0635 3.07L51.2815 8.6L51.2115 10.49L56.9935 4.96ZM52.6955 3.56H51.2115V10.49L52.6955 8.768V3.56ZM57.0635 3.07L55.5795 4.778V10H57.0635V3.07ZM59.7158 7.228H64.6438V5.968H59.7158V7.228ZM63.8318 3.56V10H65.3158V3.56H63.8318ZM59.0578 3.56V10H60.5418V3.56H59.0578ZM67.6673 7.13H73.3233C73.3326 7.046 73.3373 6.97133 73.3373 6.906C73.3373 6.83133 73.3373 6.766 73.3373 6.71C73.3373 6.02867 73.2066 5.44533 72.9453 4.96C72.6933 4.46533 72.3246 4.08733 71.8393 3.826C71.3633 3.55533 70.7893 3.42 70.1173 3.42C69.5106 3.42 68.9739 3.532 68.5073 3.756C68.0406 3.98 67.6626 4.29267 67.3733 4.694C67.0933 5.09533 66.9066 5.562 66.8133 6.094C66.7946 6.206 66.7806 6.318 66.7713 6.43C66.7619 6.542 66.7573 6.65867 66.7573 6.78C66.7573 7.424 66.8926 8.00267 67.1633 8.516C67.4339 9.02 67.8166 9.41667 68.3113 9.706C68.8153 9.99533 69.3939 10.14 70.0473 10.14C70.6353 10.14 71.1253 10.07 71.5173 9.93C71.9186 9.78067 72.2593 9.57533 72.5393 9.314C72.8193 9.05267 73.0666 8.74467 73.2812 8.39L71.9653 7.872C71.8439 8.07733 71.6946 8.25933 71.5173 8.418C71.3399 8.56733 71.1346 8.684 70.9013 8.768C70.6773 8.852 70.4159 8.894 70.1173 8.894C69.7626 8.894 69.4453 8.81933 69.1653 8.67C68.8946 8.51133 68.6799 8.27333 68.5213 7.956C68.3719 7.63867 68.2973 7.24667 68.2973 6.78L68.3253 6.388C68.3253 6.01467 68.3999 5.69267 68.5493 5.422C68.7079 5.142 68.9226 4.932 69.1933 4.792C69.4639 4.64267 69.7673 4.568 70.1033 4.568C70.4299 4.568 70.7053 4.63333 70.9293 4.764C71.1533 4.88533 71.3259 5.06267 71.4473 5.296C71.5779 5.52 71.6619 5.78133 71.6993 6.08H67.6673V7.13Z" fill="#282739"/>
</svg>
