<svg width="67" height="14" viewBox="0 0 67 14" fill="none" xmlns="http://www.w3.org/2000/svg">
<path d="M0.311219 1.726H2.90122V10H4.55322V1.726H7.14322V0.199999H0.311219V1.726ZM7.24538 7.13H12.9014C12.9107 7.046 12.9154 6.97133 12.9154 6.906C12.9154 6.83133 12.9154 6.766 12.9154 6.71C12.9154 6.02867 12.7847 5.44533 12.5234 4.96C12.2714 4.46533 11.9027 4.08733 11.4174 3.826C10.9414 3.55533 10.3674 3.42 9.69538 3.42C9.08871 3.42 8.55204 3.532 8.08538 3.756C7.61871 3.98 7.24071 4.29267 6.95138 4.694C6.67138 5.09533 6.48471 5.562 6.39138 6.094C6.37271 6.206 6.35871 6.318 6.34938 6.43C6.34004 6.542 6.33538 6.65867 6.33538 6.78C6.33538 7.424 6.47071 8.00267 6.74138 8.516C7.01204 9.02 7.39471 9.41667 7.88938 9.706C8.39338 9.99533 8.97204 10.14 9.62538 10.14C10.2134 10.14 10.7034 10.07 11.0954 9.93C11.4967 9.78067 11.8374 9.57533 12.1174 9.314C12.3974 9.05267 12.6447 8.74467 12.8594 8.39L11.5434 7.872C11.422 8.07733 11.2727 8.25933 11.0954 8.418C10.918 8.56733 10.7127 8.684 10.4794 8.768C10.2554 8.852 9.99404 8.894 9.69538 8.894C9.34071 8.894 9.02338 8.81933 8.74338 8.67C8.47271 8.51133 8.25804 8.27333 8.09938 7.956C7.95004 7.63867 7.87538 7.24667 7.87538 6.78L7.90338 6.388C7.90338 6.01467 7.97804 5.69267 8.12738 5.422C8.28604 5.142 8.50071 4.932 8.77138 4.792C9.04204 4.64267 9.34538 4.568 9.68138 4.568C10.008 4.568 10.2834 4.63333 10.5074 4.764C10.7314 4.88533 10.904 5.06267 11.0254 5.296C11.156 5.52 11.24 5.78133 11.2774 6.08H7.24538V7.13ZM15.3803 6.78C15.3803 6.37867 15.4689 6.024 15.6463 5.716C15.8236 5.408 16.0616 5.16533 16.3603 4.988C16.6683 4.81067 17.0089 4.722 17.3823 4.722C17.6809 4.722 17.9703 4.76867 18.2503 4.862C18.5303 4.95533 18.7776 5.086 18.9923 5.254C19.2163 5.41267 19.3796 5.59933 19.4823 5.814V4.134C19.2583 3.91933 18.9549 3.74667 18.5723 3.616C18.1896 3.48533 17.7696 3.42 17.3123 3.42C16.6589 3.42 16.0663 3.56467 15.5343 3.854C15.0116 4.134 14.5963 4.526 14.2883 5.03C13.9803 5.534 13.8263 6.11733 13.8263 6.78C13.8263 7.43333 13.9803 8.01667 14.2883 8.53C14.5963 9.034 15.0116 9.43067 15.5343 9.72C16.0663 10 16.6589 10.14 17.3123 10.14C17.7696 10.14 18.1896 10.0747 18.5723 9.944C18.9549 9.81333 19.2583 9.636 19.4823 9.412V7.746C19.3796 7.95133 19.2209 8.138 19.0063 8.306C18.7916 8.46467 18.5443 8.59533 18.2643 8.698C17.9936 8.79133 17.6996 8.838 17.3823 8.838C17.0089 8.838 16.6683 8.74933 16.3603 8.572C16.0616 8.39467 15.8236 8.152 15.6463 7.844C15.4689 7.536 15.3803 7.18133 15.3803 6.78ZM20.2575 3.56V4.89H24.3315V3.56H20.2575ZM21.5595 3.84V10H23.0435V3.84H21.5595ZM24.4684 7.354H27.3384V5.996H24.4684V7.354ZM32.0963 5.73L33.8463 9.58L35.4283 9.398L32.0963 3.07L28.7783 9.398L30.3463 9.58L32.0963 5.73ZM34.7563 10V11.26H36.2263V8.698H27.9663V11.26H29.5063V10H34.7563ZM39.2895 13.08V3.56H37.7635V13.08H39.2895ZM44.6235 6.78C44.6235 6.052 44.4788 5.44067 44.1895 4.946C43.9002 4.442 43.5175 4.05467 43.0415 3.784C42.5655 3.51333 42.0475 3.378 41.4875 3.378C40.9462 3.378 40.4702 3.518 40.0595 3.798C39.6582 4.078 39.3455 4.47 39.1215 4.974C38.8975 5.478 38.7855 6.08 38.7855 6.78C38.7855 7.47067 38.8975 8.07267 39.1215 8.586C39.3455 9.09 39.6582 9.482 40.0595 9.762C40.4702 10.0327 40.9462 10.168 41.4875 10.168C42.0475 10.168 42.5655 10.0373 43.0415 9.776C43.5175 9.50533 43.9002 9.118 44.1895 8.614C44.4788 8.10067 44.6235 7.48933 44.6235 6.78ZM43.0555 6.78C43.0555 7.20933 42.9668 7.57333 42.7895 7.872C42.6122 8.17067 42.3788 8.39933 42.0895 8.558C41.8002 8.71667 41.4782 8.796 41.1235 8.796C40.8248 8.796 40.5355 8.72133 40.2555 8.572C39.9755 8.41333 39.7422 8.18467 39.5555 7.886C39.3782 7.58733 39.2895 7.21867 39.2895 6.78C39.2895 6.34133 39.3782 5.97267 39.5555 5.674C39.7422 5.37533 39.9755 5.15133 40.2555 5.002C40.5355 4.84333 40.8248 4.764 41.1235 4.764C41.4782 4.764 41.8002 4.84333 42.0895 5.002C42.3788 5.15133 42.6122 5.38 42.7895 5.688C42.9668 5.98667 43.0555 6.35067 43.0555 6.78ZM47.0157 8.096C47.0157 7.872 47.0717 7.68067 47.1837 7.522C47.2957 7.354 47.459 7.228 47.6737 7.144C47.8883 7.05067 48.1543 7.004 48.4717 7.004C48.8637 7.004 49.209 7.05533 49.5077 7.158C49.8063 7.25133 50.1003 7.40533 50.3897 7.62V6.822C50.315 6.72867 50.1797 6.62133 49.9837 6.5C49.7877 6.37867 49.5403 6.27133 49.2417 6.178C48.9523 6.08467 48.621 6.038 48.2477 6.038C47.6877 6.038 47.1977 6.122 46.7777 6.29C46.367 6.458 46.0497 6.70067 45.8257 7.018C45.6017 7.33533 45.4897 7.71333 45.4897 8.152C45.4897 8.59067 45.5877 8.95933 45.7837 9.258C45.989 9.54733 46.2597 9.76667 46.5957 9.916C46.941 10.0653 47.3237 10.14 47.7437 10.14C48.1917 10.14 48.5977 10.0653 48.9617 9.916C49.3257 9.75733 49.615 9.53333 49.8297 9.244C50.0443 8.94533 50.1517 8.59067 50.1517 8.18L49.9277 7.438C49.9277 7.82067 49.853 8.124 49.7037 8.348C49.5543 8.572 49.349 8.73533 49.0877 8.838C48.8263 8.94067 48.5323 8.992 48.2057 8.992C47.991 8.992 47.7903 8.95933 47.6037 8.894C47.4263 8.81933 47.2817 8.71667 47.1697 8.586C47.067 8.45533 47.0157 8.292 47.0157 8.096ZM46.6937 5.254C46.7963 5.18867 46.941 5.10933 47.1277 5.016C47.3237 4.91333 47.5477 4.82467 47.7997 4.75C48.061 4.67533 48.3457 4.638 48.6537 4.638C49.0083 4.638 49.307 4.722 49.5497 4.89C49.8017 5.04867 49.9277 5.27733 49.9277 5.576V10H51.4117V5.408C51.4117 4.97867 51.295 4.61467 51.0617 4.316C50.8377 4.01733 50.525 3.79333 50.1237 3.644C49.7223 3.48533 49.2557 3.406 48.7237 3.406C48.145 3.406 47.6317 3.49 47.1837 3.658C46.7357 3.826 46.367 3.99867 46.0777 4.176L46.6937 5.254ZM59.0247 4.96L59.0947 3.07L53.3127 8.6L53.2427 10.49L59.0247 4.96ZM54.7267 3.56H53.2427V10.49L54.7267 8.768V3.56ZM59.0947 3.07L57.6107 4.778V10H59.0947V3.07ZM53.9847 0.269999C53.9847 0.605999 54.0687 0.927999 54.2367 1.236C54.4047 1.544 54.6567 1.79133 54.9927 1.978C55.3287 2.16467 55.7394 2.258 56.2247 2.258C56.7194 2.258 57.1347 2.16467 57.4707 1.978C57.8067 1.79133 58.0587 1.544 58.2267 1.236C58.3947 0.927999 58.4787 0.605999 58.4787 0.269999H57.3307C57.3307 0.41 57.2934 0.554666 57.2187 0.704C57.1534 0.843999 57.0367 0.969999 56.8687 1.082C56.71 1.18467 56.4954 1.236 56.2247 1.236C55.9634 1.236 55.7487 1.18467 55.5807 1.082C55.422 0.969999 55.3054 0.843999 55.2307 0.704C55.1654 0.554666 55.1327 0.41 55.1327 0.269999H53.9847ZM62.055 6.64V7.298H63.917C64.1037 7.298 64.2624 7.31667 64.393 7.354C64.533 7.39133 64.6404 7.44733 64.715 7.522C64.799 7.59667 64.8644 7.68067 64.911 7.774C64.9577 7.858 64.981 7.96067 64.981 8.082C64.981 8.29667 64.897 8.48333 64.729 8.642C64.561 8.80067 64.2904 8.88 63.917 8.88H62.055V10H64.379C65.1164 10 65.6437 9.832 65.961 9.496C66.2877 9.15067 66.451 8.73533 66.451 8.25C66.451 7.83 66.3484 7.50333 66.143 7.27C65.9377 7.03667 65.6577 6.87333 65.303 6.78C64.9484 6.68667 64.547 6.64 64.099 6.64H62.055ZM62.055 6.92H63.959C64.3604 6.92 64.7244 6.864 65.051 6.752C65.387 6.63067 65.6577 6.45333 65.863 6.22C66.0684 5.97733 66.171 5.674 66.171 5.31C66.171 4.89 66.0684 4.554 65.863 4.302C65.6577 4.04067 65.387 3.854 65.051 3.742C64.7244 3.62067 64.3604 3.56 63.959 3.56H62.055V4.68H63.777C64.0664 4.68 64.2904 4.75 64.449 4.89C64.617 5.03 64.701 5.20733 64.701 5.422C64.701 5.52467 64.6777 5.62267 64.631 5.716C64.5937 5.80933 64.533 5.89333 64.449 5.968C64.3744 6.04267 64.281 6.09867 64.169 6.136C64.057 6.17333 63.9264 6.192 63.777 6.192H62.055V6.92ZM61.173 3.56V10H62.657V3.56H61.173Z" fill="#282739"/>
</svg>
