<svg width="29" height="11" viewBox="0 0 29 11" fill="none" xmlns="http://www.w3.org/2000/svg">
<path d="M1.57878 5.464H4.07078C4.44411 5.464 4.77078 5.52 5.05078 5.632C5.33078 5.744 5.54545 5.91667 5.69478 6.15C5.85345 6.374 5.93278 6.65867 5.93278 7.004C5.93278 7.34933 5.85345 7.63867 5.69478 7.872C5.54545 8.096 5.33078 8.264 5.05078 8.376C4.77078 8.488 4.44411 8.544 4.07078 8.544H1.57878V10H4.28078C4.91545 10 5.48011 9.87867 5.97478 9.636C6.47878 9.384 6.87545 9.034 7.16478 8.586C7.46345 8.12867 7.61278 7.60133 7.61278 7.004C7.61278 6.39733 7.46345 5.87467 7.16478 5.436C6.87545 4.988 6.47878 4.64267 5.97478 4.4C5.48011 4.15733 4.91545 4.036 4.28078 4.036H1.57878V5.464ZM0.920781 0.199999V10H2.60078V1.656H6.87078V0.199999H0.920781ZM15.224 3.56H9.32997V7.55C9.32997 7.97 9.2273 8.25467 9.02197 8.404C8.82597 8.55333 8.58797 8.628 8.30797 8.628V10C8.91464 10 9.39997 9.92067 9.76397 9.762C10.1373 9.594 10.4033 9.34667 10.562 9.02C10.73 8.684 10.814 8.264 10.814 7.76V4.96H13.74V10H15.224V3.56ZM16.8198 6.78C16.8198 7.43333 16.9691 8.01667 17.2677 8.53C17.5758 9.034 17.9911 9.43067 18.5138 9.72C19.0458 10 19.6384 10.14 20.2918 10.14C20.9544 10.14 21.5471 10 22.0698 9.72C22.5924 9.43067 23.0031 9.034 23.3018 8.53C23.6098 8.01667 23.7638 7.43333 23.7638 6.78C23.7638 6.11733 23.6098 5.534 23.3018 5.03C23.0031 4.526 22.5924 4.134 22.0698 3.854C21.5471 3.56467 20.9544 3.42 20.2918 3.42C19.6384 3.42 19.0458 3.56467 18.5138 3.854C17.9911 4.134 17.5758 4.526 17.2677 5.03C16.9691 5.534 16.8198 6.11733 16.8198 6.78ZM18.3738 6.78C18.3738 6.37867 18.4578 6.024 18.6258 5.716C18.7938 5.408 19.0224 5.17 19.3118 5.002C19.6011 4.834 19.9278 4.75 20.2918 4.75C20.6558 4.75 20.9824 4.834 21.2718 5.002C21.5611 5.17 21.7898 5.408 21.9578 5.716C22.1258 6.024 22.2098 6.37867 22.2098 6.78C22.2098 7.18133 22.1258 7.536 21.9578 7.844C21.7898 8.14267 21.5611 8.38067 21.2718 8.558C20.9824 8.726 20.6558 8.81 20.2918 8.81C19.9278 8.81 19.6011 8.726 19.3118 8.558C19.0224 8.38067 18.7938 8.14267 18.6258 7.844C18.4578 7.536 18.3738 7.18133 18.3738 6.78ZM25.2681 3.56V10H26.7661V4.89H28.9781V3.56H25.2681Z" fill="#282739"/>
</svg>
